<svg width="71" height="41" viewBox="0 0 71 41" fill="none" xmlns="http://www.w3.org/2000/svg">
<path d="M60.6133 19.8508C60.532 19.6411 60.4101 19.4496 60.2546 19.2871L51.7129 10.7454C51.5536 10.5861 51.3645 10.4598 51.1564 10.3736C50.9483 10.2874 50.7253 10.243 50.5 10.243C50.0451 10.243 49.6088 10.4237 49.2871 10.7454C49.1278 10.9047 49.0015 11.0938 48.9152 11.3019C48.829 11.51 48.7847 11.7331 48.7847 11.9583C48.7847 12.4133 48.9654 12.8496 49.2871 13.1713L54.9246 18.7917H41.9583C41.5053 18.7917 41.0707 18.9717 40.7504 19.292C40.43 19.6124 40.25 20.0469 40.25 20.5C40.25 20.9531 40.43 21.3876 40.7504 21.708C41.0707 22.0283 41.5053 22.2083 41.9583 22.2083H54.9246L49.2871 27.8288C49.127 27.9876 48.9999 28.1765 48.9131 28.3847C48.8264 28.5929 48.7818 28.8161 48.7818 29.0417C48.7818 29.2672 48.8264 29.4905 48.9131 29.6987C48.9999 29.9068 49.127 30.0958 49.2871 30.2546C49.4459 30.4147 49.6348 30.5418 49.843 30.6285C50.0512 30.7153 50.2745 30.7599 50.5 30.7599C50.7255 30.7599 50.9488 30.7153 51.157 30.6285C51.3652 30.5418 51.5541 30.4147 51.7129 30.2546L60.2546 21.7129C60.4101 21.5504 60.532 21.3589 60.6133 21.1492C60.7842 20.7333 60.7842 20.2667 60.6133 19.8508Z" fill="#340F0F"/>
<rect y="18" width="56" height="4.5" rx="2.25" fill="#340F0F"/>
</svg>
