<?xml version="1.0" encoding="UTF-8" standalone="no"?>
<svg
   height="24"
   viewBox="0 -960 960 960"
   width="24"
   version="1.1"
   id="svg1"
   sodipodi:docname="family_star_FILL0_wght400_GRAD0_opsz24.svg"
   xmlns:inkscape="http://www.inkscape.org/namespaces/inkscape"
   xmlns:sodipodi="http://sodipodi.sourceforge.net/DTD/sodipodi-0.dtd"
   xmlns="http://www.w3.org/2000/svg"
   xmlns:svg="http://www.w3.org/2000/svg">
  <defs
     id="defs1" />
  <sodipodi:namedview
     id="namedview1"
     pagecolor="#ffffff"
     bordercolor="#000000"
     borderopacity="0.25"
     inkscape:showpageshadow="2"
     inkscape:pageopacity="0.0"
     inkscape:pagecheckerboard="0"
     inkscape:deskcolor="#d1d1d1" />
  <path
     id="path2"
     style="fill:#000000;stroke:#afafaf;stroke-width:40;stroke-linecap:round;stroke-linejoin:round;paint-order:stroke fill markers"
     d="m 480,-880 c -11.99999,0 -23.53126,2.5 -34.53125,7.5 -10.99999,5 -20.43751,12.84897 -28.4375,23.51562 l -112.03125,145 -170,56.95313 c -17.33332,5.99999 -30.80209,16.21356 -40.46875,30.54687 C 84.864593,-602.15106 80,-586.66665 80,-570 c 0,7.99999 1.182294,15.98438 3.515625,23.98438 2.333331,7.99999 6.151047,15.71354 11.484375,23.04687 l 108.98438,155 -3.98438,165 c -0.66667,23.33331 6.96877,42.98439 22.96875,58.98437 15.99998,15.99999 34.68231,23.98438 56.01563,23.98438 3.33332,0 7.01562,-0.13542 11.01562,-0.46875 4,-0.33333 7.6823,-1.16667 11.01562,-2.5 l 178.98438,-50 178.98438,50 c 13.33331,2 20.69791,2.96875 22.03124,2.96875 21.33332,0 40.01565,-7.98439 56.01563,-23.98438 15.99998,-15.99998 23.63542,-35.65106 22.96875,-58.98437 l -3.98438,-164.0625 110,-155.9375 c 5.33333,-7.33333 9.15105,-15.04688 11.48438,-23.04687 2.33333,-8 3.51563,-15.98439 3.51562,-23.98438 0,-17.33332 -5,-33.16668 -15,-47.5 -9.99998,-14.33332 -23.6823,-24.19792 -41.01562,-29.53125 l -170,-56.95313 -112.03125,-145 C 534.96876,-859.65103 525.53124,-867.5 514.53125,-872.5 503.53126,-877.5 491.99999,-880 480,-880 Z" />
</svg>
